# xmcd CD database file
# Copyright (C) 1993-1998 Ti Kan
#
# Track frame offsets:
# 183
# 15350
# 28098
# 42840
# 56030
# 70113
# 93425
# 114583
# 133310
# 155153
# 168010
# 191003
# 209988
# 222978
# 233183
# 252663
# 265573
# 275478
#
# Disc length: 3996 seconds
#
# Revision: 0
# Processed by: cddbd v1.4b41PL1 Copyright (c) Steve Scherf et al.
# Submitted via: inCDius 1.1
#
DISCID=100f9a12
DTITLE=Various Artist - le top du blues - Disc 2/2
DYEAR=1900
DGENRE=
TTITLE0=My babe (Lightnin' Hopkins)
TTITLE1=San Francisco Bay blues (Jesse Fuller)
TTITLE2=Illinois blues (Skip James)
TTITLE3=Boogie chillun (John Lee Hooker)
TTITLE4=Everything's going to be alright (Junior Wells)
TTITLE5=Blue monday (Little Milton)
TTITLE6=Hold that plane (Buddy Guy)
TTITLE7=Things I used to do (Little Sonny)
TTITLE8=Leaving trunk (Taj Mahal)
TTITLE9=It's all over now (Bobby Womack)
TTITLE10=Cold in hand (Albert King)
TTITLE11=I'm a man (The Yardbirds)
TTITLE12=Baby please don't go (Tom Rush)
TTITLE13=Not fade away (Cyril Davies and Tha All Stars)
TTITLE14=Statesboro blues (The Allman Brothers Band)
TTITLE15=Bye bye bird (The Moody Blues)
TTITLE16=Tribute to Elmore (Eric Clapton)
TTITLE17=Athis Mons blues ( Patrick Verbeke)
EXTD=
EXTT0=
EXTT1=
EXTT2=
EXTT3=
EXTT4=
EXTT5=
EXTT6=
EXTT7=
EXTT8=
EXTT9=
EXTT10=
EXTT11=
EXTT12=
EXTT13=
EXTT14=
EXTT15=
EXTT16=
EXTT17=
PLAYORDER=
